# xmcd
#
# Track frame offsets:
# 150
# 16947
# 38225
# 66237
# 84397
# 118525
# 141153
# 171069
# 188941
# 218928
#
# Disc length: 3308 seconds
#
#
# Revision: 1
# Processed by: cddbd v1.5.2PL0 Copyright (c) Steve Scherf et al.
# Submitted via: FreeRIP 2.96 
#
DISCID=880cea0a
DTITLE=Lachy Doley Group, The [AUS] - S.O.S. Singer Organ Soul
DYEAR=2013
DGENRE=Blues
TTITLE0=Love Blinded Fool [from 'S.O.S. Singer Organ Soul', Sep 2013] [MLVox]
TTITLE1=The Walking Dead [from 'S.O.S. Singer Organ Soul', Sep 2013] [MLVox]
TTITLE2=Jemima Jane [from 'S.O.S. Singer Organ Soul', Sep 2013] [MLVox]
TTITLE3=Six Feet Under [from 'S.O.S. Singer Organ Soul', Sep 2013] [MLVox]
TTITLE4=Still in Love [from 'S.O.S. Singer Organ Soul', Sep 2013] [MLVox]
TTITLE5=Paper Plane [from 'S.O.S. Singer Organ Soul', Sep 2013] [MLVox]
TTITLE6=If Looks Could Kill [from 'S.O.S. Singer Organ Soul', Sep 2013] [MLVox]
TTITLE7=The Underground [from 'S.O.S. Singer Organ Soul', Sep 2013] [MLVox]
TTITLE8=Not Mistaken [from 'S.O.S. Singer Organ Soul', Sep 2013] [MLVox]
TTITLE9=I Don't Want to be Forgot [from 'S.O.S. Singer Organ Soul', Sep 2013] [MLVox]
EXTD=Australian band originating from Melbourne, Victoria
EXTT0=
EXTT1=
EXTT2=
EXTT3=
EXTT4=
EXTT5=
EXTT6=
EXTT7=
EXTT8=
EXTT9=
PLAYORDER=
